# xmcd
#
# Track frame offsets: 
#        150
#        12159
#        29708
#        46602
#        65854
#        89545
#        112258
#        123891
#        136112
#        150599
#        163627
#        185901
#        206876
#
# Disc length: 2864 seconds
#
# Revision: 0
# Processed by: cddbd v1.5.2PL0 Copyright (c) Steve Scherf et al.
# Submitted via: ExactAudioCopy v1.0b1
#
DISCID=ba0b2e0d
DTITLE=Roland Blues - Płyta 
DYEAR=2011
DGENRE=Blues
TTITLE0=Orlando
TTITLE1=Purpura
TTITLE2=Dreszcz
TTITLE3=Pornki
TTITLE4=Jeżu
TTITLE5=Kacówa
TTITLE6=Kwiat
TTITLE7=Leniwy
TTITLE8=Dżungla
TTITLE9=Słup
TTITLE10=Butla
TTITLE11=Wiersz
TTITLE12=Procesja
EXTD=
EXTT0=
EXTT1=
EXTT2=
EXTT3=
EXTT4=
EXTT5=
EXTT6=
EXTT7=
EXTT8=
EXTT9=
EXTT10=
EXTT11=
EXTT12=
PLAYORDER=
